<?xml version="1.0" encoding="UTF-8" standalone="no"?>
<!DOCTYPE svg PUBLIC "-//W3C//DTD SVG 1.1//EN" "http://www.w3.org/Graphics/SVG/1.1/DTD/svg11.dtd">
<svg width="100%" height="100%" viewBox="0 0 2099 2098" version="1.1" xmlns="http://www.w3.org/2000/svg" xmlns:xlink="http://www.w3.org/1999/xlink" xml:space="preserve" xmlns:serif="http://www.serif.com/" style="fill-rule:evenodd;clip-rule:evenodd;stroke-linecap:round;stroke-linejoin:round;stroke-miterlimit:1.5;">
    <g transform="matrix(1,0,0,1,-24379,-671)">
        <g id="Favicon_v2" transform="matrix(1,0,0,1,9605.86,-0.418586)">
            <rect x="14773.5" y="671.419" width="2097.99" height="2097.99" style="fill:none;"/>
            <g transform="matrix(1.54336,0,0,1.54336,-8148.09,-274.751)">
                <circle cx="15531.5" cy="1292.74" r="591.498" style="fill:white;"/>
                <clipPath id="_clip1">
                    <circle cx="15531.5" cy="1292.74" r="591.498"/>
                </clipPath>
                <g clip-path="url(#_clip1)">
                    <g transform="matrix(0.726339,0,0,0.726339,4038.96,-57.4366)">
                        <g>
                            <g transform="matrix(1.15814,0,0,1.17153,-2493.1,-340.322)">
                                <ellipse cx="15814.6" cy="1974.03" rx="315.169" ry="262.809"/>
                            </g>
                            <g transform="matrix(2.25631,0,0,2.00007,-19860.2,-1563.5)">
                                <ellipse cx="15814.6" cy="1974.03" rx="315.169" ry="262.809"/>
                            </g>
                            <g transform="matrix(1,0,0,1,3,0)">
                                <g transform="matrix(0.330909,0,0,0.453027,10277.9,937.363)">
                                    <path d="M15814.6,2323.9C15640.7,2323.9 15499.5,2119.07 15499.5,1974.03C15499.5,1828.98 15640.7,1711.22 15814.6,1711.22C15988.6,1711.22 16129.8,1828.98 16129.8,1974.03C16129.8,2119.07 16099.4,2276.28 15814.6,2323.9Z"/>
                                </g>
                                <g transform="matrix(-0.330909,0,0,0.453027,21361.1,937.363)">
                                    <path d="M15814.6,2323.9C15640.7,2323.9 15499.5,2119.07 15499.5,1974.03C15499.5,1828.98 15640.7,1711.22 15814.6,1711.22C15988.6,1711.22 16129.8,1828.98 16129.8,1974.03C16129.8,2119.07 16099.4,2276.28 15814.6,2323.9Z"/>
                                </g>
                            </g>
                            <g transform="matrix(-0.230434,-1.60342,0.803131,-0.115421,17558.6,26659.2)">
                                <path d="M15281.5,1683.76C15291.6,1683.76 15299.8,1700.19 15299.8,1720.41C15299.8,1740.64 15291.6,1757.06 15281.5,1757.06C15262.9,1752.98 15246,1749.03 15230,1748.75C15178.5,1747.85 15140.4,1764.86 15112.3,1783.96C15036.1,1835.6 15034.2,1924.03 15034.2,1924.03C15034.2,1928.37 15032.4,1931.9 15030.3,1931.91C15028.1,1931.93 15026.3,1928.41 15026.3,1924.07C15026.3,1924.07 15024.2,1824.33 15106.7,1754.76C15135.4,1730.52 15174.8,1713.61 15228.3,1698.58C15244.8,1693.95 15262.2,1688.01 15281.5,1683.76Z" style="fill:white;"/>
                            </g>
                        </g>
                    </g>
                    <g transform="matrix(1.22673,0,0,1.22673,-3521.44,-400.943)">
                        <g transform="matrix(0.257303,0,0,0.281064,10535.4,373.326)">
                            <path d="M19417,3907.08C19543.5,3907.08 19646.2,3956.83 19646.2,4083.31C19646.2,4261.5 19543.5,4365.45 19417,4365.45C19290.5,4365.45 19187.8,4263.49 19187.8,4083.31C19187.8,3956.83 19290.5,3907.08 19417,3907.08Z" style="fill:white;"/>
                        </g>
                        <g transform="matrix(0.250455,0,0,0.250455,10563.2,492.919)">
                            <g transform="matrix(1,0,0,1,483.004,0)">
                                <ellipse cx="19353.9" cy="4014.14" rx="124.317" ry="37.345"/>
                            </g>
                            <g transform="matrix(0.578424,0,0,0.578424,8642.15,1983.95)">
                                <ellipse cx="19353.9" cy="4014.14" rx="124.317" ry="37.345"/>
                            </g>
                            <path d="M19836.9,4051.48L19836.9,4293.8" style="fill:none;stroke:black;stroke-width:34.48px;"/>
                        </g>
                        <g transform="matrix(0.592094,0,0,0.592094,6168.57,262.255)">
                            <circle cx="15936.9" cy="1973.21" r="49.057" style="fill:white;"/>
                            <g transform="matrix(1,0,0,1,-247.512,0)">
                                <circle cx="15936.9" cy="1973.21" r="49.057" style="fill:white;"/>
                            </g>
                        </g>
                    </g>
                </g>
                <circle cx="15531.5" cy="1292.74" r="591.498" style="fill:none;stroke:black;stroke-width:64.79px;"/>
            </g>
            <g transform="matrix(1.121,0,0,1.121,-1921.49,-363.396)">
                <g>
                    <path d="M15763.8,1689.92C15780.6,1727.34 15763.9,1771.38 15726.5,1788.21C15689.1,1805.04 15645,1788.32 15628.2,1750.9C15628.2,1750.9 15611.4,1697.24 15581.8,1650.35C15571.1,1633.47 15560.3,1616.51 15546.7,1605.46C15541.6,1601.39 15538.2,1595.6 15532.6,1595.22C15492.8,1593.59 15470.2,1621.58 15448.5,1649.01C15424,1680.01 15401.5,1712.53 15373.8,1733.47C15349.2,1752.02 15321.7,1763.92 15287.8,1762.93C15215.8,1760.96 15169.6,1743.43 15142.1,1715.63C15116.6,1689.91 15103.7,1655.32 15104.9,1610.46C15108.5,1462.69 15182.6,1314.93 15294.4,1205.43C15404.6,1097.41 15550.2,1026.31 15696,1029.76C15704.8,1029.76 15712,1036.91 15712,1045.72C15712,1054.53 15704.8,1061.68 15696,1061.68C15560.9,1064.87 15429.2,1137.05 15332,1241.98C15237.1,1344.42 15175.5,1478.59 15178.8,1610.46C15179.4,1635.9 15186.3,1655.06 15205.9,1665.77C15224.6,1676.05 15251.6,1678.9 15287.8,1677.89C15318.5,1677 15333.2,1650 15350.9,1624.43C15378.5,1584.45 15407,1541.83 15446.5,1515.58C15470.5,1499.67 15498.5,1490.13 15532.6,1488.19C15568.1,1485.63 15604.3,1503.86 15639,1531.62C15707,1585.96 15763.8,1689.92 15763.8,1689.92Z"/>
                    <g transform="matrix(0.5,-0.866025,-0.866025,-0.5,9172.35,15814.8)">
                        <path d="M15281.5,1763.16C15305.1,1763.16 15324.2,1744 15324.2,1720.41C15324.2,1696.82 15305.1,1677.67 15281.5,1677.67C15261.3,1682.15 15244.2,1686.83 15227.1,1692.19C15219.2,1694.67 15211.6,1696.61 15204.2,1698.87C15158.8,1712.71 15124,1729.84 15098.2,1752.08C15016,1822.79 15021.1,1924.06 15021.1,1924.06C15021.1,1929.12 15025.2,1933.23 15030.3,1933.22C15035.3,1933.22 15039.4,1929.1 15039.4,1924.04C15039.4,1924.04 15044.6,1835.78 15122.9,1785.07C15146.3,1769.91 15176.2,1757.41 15215,1754.75C15227.7,1753.88 15240.7,1755.27 15255,1757.2C15263.9,1758.39 15272.1,1760.94 15281.5,1763.16Z"/>
                    </g>
                    <g transform="matrix(0.995632,-0.0933621,-0.0933621,-0.995632,191.818,4860.07)">
                        <path d="M15281.5,1757.58C15302,1757.58 15318.7,1740.93 15318.7,1720.41C15318.7,1699.9 15302,1683.24 15281.5,1683.24C15261.6,1687.09 15244.4,1691.4 15227.6,1696.27C15219.8,1698.53 15212.3,1700.39 15204.9,1702.52C15159.9,1715.56 15125.5,1732.51 15099.8,1754.23C15017.8,1823.51 15022.3,1924.06 15022.3,1924.06C15022.3,1928.46 15025.9,1932.03 15030.3,1932.03C15034.7,1932.02 15038.2,1928.44 15038.2,1924.04C15038.2,1924.04 15042.7,1834.81 15121.3,1782.91C15144.8,1767.35 15175.1,1754.53 15214.3,1751.11C15225,1750.17 15236,1750.73 15247.9,1751.74C15258.9,1752.67 15269.6,1755.19 15281.5,1757.58Z"/>
                    </g>
                    <g transform="matrix(0.378292,0.925686,0.925686,-0.378292,7779.05,-12007.9)">
                        <path d="M15281.5,1757.58C15302,1757.58 15318.7,1740.93 15318.7,1720.41C15318.7,1699.9 15302,1683.24 15281.5,1683.24C15256.5,1687.77 15235.4,1693.68 15215,1699.64C15176.9,1710.75 15145.7,1722.13 15121,1738.56C15061.2,1778.36 15036.7,1833.1 15027.7,1873.63C15026,1881.53 15023.2,1888.05 15019.9,1893.2C15013.4,1903.64 15006.2,1908.7 15006.2,1908.7C15002.4,1910.9 15001,1915.79 15003.2,1919.6C15005.5,1923.41 15010.3,1924.72 15014.1,1922.52C15014.1,1922.52 15024.8,1916.99 15035.1,1903.89C15040.1,1897.6 15044.7,1889.47 15048.2,1879.37C15059.8,1845.5 15084.9,1799.64 15140.3,1772.01C15162.7,1760.88 15189.9,1751.83 15223.2,1750.62C15241.4,1749.97 15260.1,1753.71 15281.5,1757.58Z"/>
                    </g>
                    <g transform="matrix(-0.955245,-0.0300572,0.0330501,-1.05036,29734.7,3679.54)">
                        <path d="M15281.5,1692.12C15298.7,1692.12 15312.6,1704.8 15312.6,1720.41C15312.6,1736.03 15298.7,1748.71 15281.5,1748.71C15263.7,1746.19 15247.7,1744.06 15232.2,1744.32C15224.9,1744.44 15217.9,1744.88 15211.1,1745.78C15170.6,1751.18 15139.6,1765.2 15115.9,1782.31C15040.7,1836.63 15036.9,1924.04 15036.9,1924.04C15036.9,1927.39 15034,1930.12 15030.3,1930.12C15026.6,1930.13 15023.6,1927.41 15023.6,1924.06C15023.6,1924.06 15019.8,1828.52 15096.2,1761.77C15121.7,1739.48 15156.2,1721.6 15202.1,1709.02C15209.7,1706.94 15217.5,1705.12 15225.6,1703.08C15242.9,1698.73 15261,1695.02 15281.5,1692.12Z"/>
                    </g>
                    <g transform="matrix(1.19927,-0.383222,-0.304382,-0.95255,-2178.58,9123.85)">
                        <path d="M15281.5,1770.59C15303.5,1770.59 15321.3,1748.11 15321.3,1720.41C15321.3,1692.72 15303.5,1670.23 15281.5,1670.23C15258,1676.45 15238.3,1683.92 15218.8,1690.49C15155.7,1711.72 15111.9,1734.4 15082.8,1766.3C15018,1837.29 15021.7,1924.07 15021.7,1924.07C15021.7,1930.01 15025.6,1934.83 15030.3,1934.82C15035,1934.81 15038.8,1929.97 15038.8,1924.03C15038.8,1924.03 15043.8,1829.86 15129.8,1782.72C15153.2,1769.91 15182.4,1760.15 15219.2,1758.81C15225.3,1758.59 15231.4,1758.96 15237.9,1759.72C15252,1761.37 15265.7,1766.07 15281.5,1770.59Z"/>
                    </g>
                    <g transform="matrix(-0.229677,1.32703,-1.04053,-0.18009,20996.5,-18289.1)">
                        <path d="M15281.5,1672.89C15302,1672.89 15318.7,1694.19 15318.7,1720.41C15318.7,1746.64 15302,1767.93 15281.5,1767.93C15265.7,1763.64 15252,1759.25 15237.9,1757.75C15231.4,1757.06 15225.3,1756.76 15219.1,1757.02C15182.4,1758.57 15153.1,1768.45 15129.7,1781.31C15042.9,1828.95 15038.3,1924.03 15038.3,1924.03C15038.3,1929.66 15034.7,1934.24 15030.3,1934.25C15025.9,1934.26 15022.3,1929.69 15022.3,1924.07C15022.3,1924.07 15018.8,1837.09 15084.1,1766.6C15113.2,1735.2 15156.7,1712.7 15219.4,1692.25C15238.7,1685.95 15258.3,1678.74 15281.5,1672.89Z"/>
                    </g>
                </g>
                <g transform="matrix(-1,0,0,1,31657.4,0)">
                    <path d="M15628.2,1750.9C15645,1788.32 15689.1,1805.04 15726.5,1788.21C15763.9,1771.38 15780.6,1727.34 15763.8,1689.92C15763.8,1689.92 15707,1585.96 15639,1531.62C15604.3,1503.86 15568.1,1485.63 15532.6,1488.19C15498.5,1490.13 15470.5,1499.67 15446.5,1515.58C15407,1541.83 15378.5,1584.45 15350.9,1624.43C15333.2,1650 15318.5,1677 15287.8,1677.89C15251.6,1678.9 15224.6,1676.05 15205.9,1665.77C15186.3,1655.06 15179.4,1635.9 15178.8,1610.46C15175.5,1478.59 15237.1,1344.42 15332,1241.98C15429.2,1137.05 15560.9,1064.87 15696,1061.68C15704.8,1061.68 15712,1054.53 15712,1045.72C15712,1036.91 15704.8,1029.76 15696,1029.76C15550.2,1026.31 15404.6,1097.41 15294.4,1205.43C15182.6,1314.93 15108.5,1462.69 15104.9,1610.46C15103.7,1655.32 15116.6,1689.91 15142.1,1715.63C15169.6,1743.43 15215.8,1760.96 15287.8,1762.93C15321.7,1763.92 15349.2,1752.02 15373.8,1733.47C15401.5,1712.53 15424,1680.01 15448.5,1649.01C15470.2,1621.58 15492.8,1593.59 15532.6,1595.22C15538.2,1595.6 15541.6,1601.39 15546.7,1605.46C15560.3,1616.51 15571.1,1633.47 15581.8,1650.35C15611.4,1697.24 15628.2,1750.9 15628.2,1750.9Z"/>
                    <g transform="matrix(0.5,-0.866025,-0.866025,-0.5,9172.35,15814.8)">
                        <path d="M15281.5,1677.67C15305.1,1677.67 15324.2,1696.82 15324.2,1720.41C15324.2,1744 15305.1,1763.16 15281.5,1763.16C15272.1,1760.94 15263.9,1758.39 15255,1757.2C15240.7,1755.27 15227.7,1753.88 15215,1754.75C15176.2,1757.41 15146.3,1769.91 15122.9,1785.07C15044.6,1835.78 15039.4,1924.04 15039.4,1924.04C15039.4,1929.1 15035.3,1933.22 15030.3,1933.22C15025.2,1933.23 15021.1,1929.12 15021.1,1924.06C15021.1,1924.06 15016,1822.79 15098.2,1752.08C15124,1729.84 15158.8,1712.71 15204.2,1698.87C15211.6,1696.61 15219.2,1694.67 15227.1,1692.19C15244.2,1686.83 15261.3,1682.15 15281.5,1677.67Z"/>
                    </g>
                    <g transform="matrix(0.995632,-0.0933621,-0.0933621,-0.995632,191.818,4860.07)">
                        <path d="M15281.5,1683.24C15302,1683.24 15318.7,1699.9 15318.7,1720.41C15318.7,1740.93 15302,1757.58 15281.5,1757.58C15269.6,1755.19 15258.9,1752.67 15247.9,1751.74C15236,1750.73 15225,1750.17 15214.3,1751.11C15175.1,1754.53 15144.8,1767.35 15121.3,1782.91C15042.7,1834.81 15038.2,1924.04 15038.2,1924.04C15038.2,1928.44 15034.7,1932.02 15030.3,1932.03C15025.9,1932.03 15022.3,1928.46 15022.3,1924.06C15022.3,1924.06 15017.8,1823.51 15099.8,1754.23C15125.5,1732.51 15159.9,1715.56 15204.9,1702.52C15212.3,1700.39 15219.8,1698.53 15227.6,1696.27C15244.4,1691.4 15261.6,1687.09 15281.5,1683.24Z"/>
                    </g>
                    <g transform="matrix(0.378292,0.925686,0.925686,-0.378292,7779.05,-12007.9)">
                        <path d="M15281.5,1683.24C15302,1683.24 15318.7,1699.9 15318.7,1720.41C15318.7,1740.93 15302,1757.58 15281.5,1757.58C15260.1,1753.71 15241.4,1749.97 15223.2,1750.62C15189.9,1751.83 15162.7,1760.88 15140.3,1772.01C15084.9,1799.64 15059.8,1845.5 15048.2,1879.37C15044.7,1889.47 15040.1,1897.6 15035.1,1903.89C15024.8,1916.99 15014.1,1922.52 15014.1,1922.52C15010.3,1924.72 15005.5,1923.41 15003.2,1919.6C15001,1915.79 15002.4,1910.9 15006.2,1908.7C15006.2,1908.7 15013.4,1903.64 15019.9,1893.2C15023.2,1888.05 15026,1881.53 15027.7,1873.63C15036.7,1833.1 15061.2,1778.36 15121,1738.56C15145.7,1722.13 15176.9,1710.75 15215,1699.64C15235.4,1693.68 15256.5,1687.77 15281.5,1683.24Z"/>
                    </g>
                    <g transform="matrix(-0.955245,-0.0300572,0.0330501,-1.05036,29734.7,3679.54)">
                        <path d="M15281.5,1748.71C15298.7,1748.71 15312.6,1736.03 15312.6,1720.41C15312.6,1704.8 15298.7,1692.12 15281.5,1692.12C15261,1695.02 15242.9,1698.73 15225.6,1703.08C15217.5,1705.12 15209.7,1706.94 15202.1,1709.02C15156.2,1721.6 15121.7,1739.48 15096.2,1761.77C15019.8,1828.52 15023.6,1924.06 15023.6,1924.06C15023.6,1927.41 15026.6,1930.13 15030.3,1930.12C15034,1930.12 15036.9,1927.39 15036.9,1924.04C15036.9,1924.04 15040.7,1836.63 15115.9,1782.31C15139.6,1765.2 15170.6,1751.18 15211.1,1745.78C15217.9,1744.88 15224.9,1744.44 15232.2,1744.32C15247.7,1744.06 15263.7,1746.19 15281.5,1748.71Z"/>
                    </g>
                    <g transform="matrix(1.19927,-0.383222,-0.304382,-0.95255,-2178.58,9123.85)">
                        <path d="M15281.5,1670.23C15303.5,1670.23 15321.3,1692.72 15321.3,1720.41C15321.3,1748.11 15303.5,1770.59 15281.5,1770.59C15265.7,1766.07 15252,1761.37 15237.9,1759.72C15231.4,1758.96 15225.3,1758.59 15219.2,1758.81C15182.4,1760.15 15153.2,1769.91 15129.8,1782.72C15043.8,1829.86 15038.8,1924.03 15038.8,1924.03C15038.8,1929.97 15035,1934.81 15030.3,1934.82C15025.6,1934.83 15021.7,1930.01 15021.7,1924.07C15021.7,1924.07 15018,1837.29 15082.8,1766.3C15111.9,1734.4 15155.7,1711.72 15218.8,1690.49C15238.3,1683.92 15258,1676.45 15281.5,1670.23Z"/>
                    </g>
                    <g transform="matrix(-0.229677,1.32703,-1.04053,-0.18009,20996.5,-18289.1)">
                        <path d="M15281.5,1767.93C15302,1767.93 15318.7,1746.64 15318.7,1720.41C15318.7,1694.19 15302,1672.89 15281.5,1672.89C15258.3,1678.74 15238.7,1685.95 15219.4,1692.25C15156.7,1712.7 15113.2,1735.2 15084.1,1766.6C15018.8,1837.09 15022.3,1924.07 15022.3,1924.07C15022.3,1929.69 15025.9,1934.26 15030.3,1934.25C15034.7,1934.24 15038.3,1929.66 15038.3,1924.03C15038.3,1924.03 15042.9,1828.95 15129.7,1781.31C15153.1,1768.45 15182.4,1758.57 15219.1,1757.02C15225.3,1756.76 15231.4,1757.06 15237.9,1757.75C15252,1759.25 15265.7,1763.64 15281.5,1767.93Z"/>
                    </g>
                </g>
            </g>
        </g>
    </g>
</svg>
