<?xml version="1.0" encoding="UTF-8" standalone="no"?><!DOCTYPE svg PUBLIC "-//W3C//DTD SVG 1.1//EN" "http://www.w3.org/Graphics/SVG/1.1/DTD/svg11.dtd"><svg width="100%" height="100%" viewBox="0 0 10 10" version="1.1" xmlns="http://www.w3.org/2000/svg" xmlns:xlink="http://www.w3.org/1999/xlink" xml:space="preserve" xmlns:serif="http://www.serif.com/" style="fill-rule:evenodd;clip-rule:evenodd;stroke-linejoin:round;stroke-miterlimit:2;"><rect id="Last" x="0" y="0" width="9.6" height="9.6" style="fill:none;"/><path d="M4.8,0.96c2.119,0 3.84,1.721 3.84,3.84c0,2.119 -1.721,3.84 -3.84,3.84c-2.119,0 -3.84,-1.721 -3.84,-3.84c0,-2.119 1.721,-3.84 3.84,-3.84Zm1.27,2.34l0,3c-0,0.276 0.224,0.5 0.5,0.5c0.276,0 0.5,-0.224 0.5,-0.5l0,-3c-0,-0.276 -0.224,-0.5 -0.5,-0.5c-0.276,0 -0.5,0.224 -0.5,0.5Zm-3.325,0.411l1.568,1.089c0,0 -1.568,1.089 -1.568,1.089c-0.227,0.158 -0.283,0.47 -0.126,0.696c0.158,0.227 0.47,0.283 0.696,0.126l2.16,-1.5c0.135,-0.094 0.215,-0.247 0.215,-0.411c0,-0.164 -0.08,-0.317 -0.215,-0.411l-2.16,-1.5c-0.226,-0.157 -0.538,-0.101 -0.696,0.126c-0.157,0.226 -0.101,0.538 0.126,0.696Z"/></svg>